<mxfile host="app.diagrams.net" modified="2023-11-09T13:02:09.733Z" agent="Mozilla/5.0 (Windows NT 10.0; Win64; x64; rv:109.0) Gecko/20100101 Firefox/119.0" etag="L__644TF42FLlcXIt2ps" version="22.0.8" type="device">
  <diagram name="Page-1" id="e7e014a7-5840-1c2e-5031-d8a46d1fe8dd">
    <mxGraphModel dx="701" dy="431" grid="1" gridSize="10" guides="1" tooltips="1" connect="1" arrows="1" fold="1" page="1" pageScale="1" pageWidth="1169" pageHeight="826" background="none" math="0" shadow="0">
      <root>
        <mxCell id="0" />
        <mxCell id="1" parent="0" />
        <mxCell id="2" value="Tierpfleger" style="swimlane;whiteSpace=wrap" parent="1" vertex="1">
          <mxGeometry x="200" y="80" width="240" height="680" as="geometry">
            <mxRectangle x="200" y="80" width="90" height="30" as="alternateBounds" />
          </mxGeometry>
        </mxCell>
        <mxCell id="B75Brsx6ZmAhKw7WbpSk-41" value="bestelltes Futter annehmen" style="rounded=1;whiteSpace=wrap;html=1;fontStyle=1" parent="2" vertex="1">
          <mxGeometry x="50" y="140" width="140" height="60" as="geometry" />
        </mxCell>
        <mxCell id="B75Brsx6ZmAhKw7WbpSk-42" value="&lt;div&gt;Lieferung&lt;/div&gt;&lt;div&gt;prÃ¼fen&lt;br&gt;&lt;/div&gt;" style="rounded=1;whiteSpace=wrap;html=1;fontStyle=1" parent="2" vertex="1">
          <mxGeometry x="50" y="260" width="140" height="60" as="geometry" />
        </mxCell>
        <mxCell id="B75Brsx6ZmAhKw7WbpSk-43" value="&lt;div&gt;Futter ins&amp;nbsp;&lt;/div&gt;&lt;div&gt;Lager bringen&lt;/div&gt;" style="rounded=1;whiteSpace=wrap;html=1;fontStyle=1" parent="2" vertex="1">
          <mxGeometry x="50" y="450" width="140" height="60" as="geometry" />
        </mxCell>
        <mxCell id="B75Brsx6ZmAhKw7WbpSk-44" value="" style="whiteSpace=wrap;html=1;rounded=0;shadow=0;comic=0;labelBackgroundColor=none;strokeWidth=1;fillColor=#000000;fontFamily=Verdana;fontSize=12;align=center;rotation=0;" parent="2" vertex="1">
          <mxGeometry x="50" y="380" width="140" height="10" as="geometry" />
        </mxCell>
        <mxCell id="B75Brsx6ZmAhKw7WbpSk-45" value="" style="endArrow=openThin;html=1;rounded=0;endFill=0;endSize=12;" parent="2" source="B75Brsx6ZmAhKw7WbpSk-41" target="B75Brsx6ZmAhKw7WbpSk-42" edge="1">
          <mxGeometry width="50" height="50" relative="1" as="geometry">
            <mxPoint x="105" y="120" as="sourcePoint" />
            <mxPoint x="165" y="120" as="targetPoint" />
          </mxGeometry>
        </mxCell>
        <mxCell id="B75Brsx6ZmAhKw7WbpSk-46" value="" style="endArrow=openThin;html=1;rounded=0;endFill=0;endSize=12;" parent="2" source="B75Brsx6ZmAhKw7WbpSk-42" target="B75Brsx6ZmAhKw7WbpSk-44" edge="1">
          <mxGeometry width="50" height="50" relative="1" as="geometry">
            <mxPoint x="267" y="105" as="sourcePoint" />
            <mxPoint x="335" y="290" as="targetPoint" />
          </mxGeometry>
        </mxCell>
        <mxCell id="B75Brsx6ZmAhKw7WbpSk-47" value="" style="endArrow=openThin;html=1;rounded=0;endFill=0;endSize=12;entryX=0.25;entryY=0;entryDx=0;entryDy=0;exitX=0.25;exitY=1;exitDx=0;exitDy=0;" parent="2" source="B75Brsx6ZmAhKw7WbpSk-44" target="B75Brsx6ZmAhKw7WbpSk-43" edge="1">
          <mxGeometry width="50" height="50" relative="1" as="geometry">
            <mxPoint x="85" y="410" as="sourcePoint" />
            <mxPoint x="100" y="440" as="targetPoint" />
          </mxGeometry>
        </mxCell>
        <mxCell id="B75Brsx6ZmAhKw7WbpSk-48" value="Start" style="ellipse;fillColor=strokeColor;html=1;verticalAlign=middle;align=left;spacingLeft=4;labelPosition=right;verticalLabelPosition=middle;" parent="2" vertex="1">
          <mxGeometry x="105" y="60" width="30" height="30" as="geometry" />
        </mxCell>
        <mxCell id="B75Brsx6ZmAhKw7WbpSk-49" value="" style="endArrow=openThin;html=1;rounded=0;endFill=0;endSize=12;" parent="2" source="B75Brsx6ZmAhKw7WbpSk-48" target="B75Brsx6ZmAhKw7WbpSk-41" edge="1">
          <mxGeometry width="50" height="50" relative="1" as="geometry">
            <mxPoint x="45" y="70" as="sourcePoint" />
            <mxPoint x="155" y="110" as="targetPoint" />
          </mxGeometry>
        </mxCell>
        <mxCell id="3" value="Lagerverwalter" style="swimlane;whiteSpace=wrap" parent="1" vertex="1">
          <mxGeometry x="440" y="80" width="240" height="680" as="geometry">
            <mxRectangle x="440" y="80" width="90" height="30" as="alternateBounds" />
          </mxGeometry>
        </mxCell>
        <mxCell id="B75Brsx6ZmAhKw7WbpSk-50" value="" style="whiteSpace=wrap;html=1;rounded=0;shadow=0;comic=0;labelBackgroundColor=none;strokeWidth=1;fillColor=#000000;fontFamily=Verdana;fontSize=12;align=center;rotation=0;" parent="3" vertex="1">
          <mxGeometry x="173" y="570" width="147" height="10" as="geometry" />
        </mxCell>
        <mxCell id="B75Brsx6ZmAhKw7WbpSk-53" value="Ende" style="ellipse;html=1;shape=endState;fillColor=strokeColor;labelPosition=left;verticalLabelPosition=middle;align=right;verticalAlign=middle;spacingRight=4;" parent="3" vertex="1">
          <mxGeometry x="194.5" y="640" width="30" height="30" as="geometry" />
        </mxCell>
        <mxCell id="B75Brsx6ZmAhKw7WbpSk-54" value="" style="endArrow=openThin;html=1;rounded=0;endFill=0;endSize=12;exitX=0.25;exitY=1;exitDx=0;exitDy=0;" parent="3" source="B75Brsx6ZmAhKw7WbpSk-50" target="B75Brsx6ZmAhKw7WbpSk-53" edge="1">
          <mxGeometry width="50" height="50" relative="1" as="geometry">
            <mxPoint x="162.5" y="400" as="sourcePoint" />
            <mxPoint x="132.5" y="370" as="targetPoint" />
          </mxGeometry>
        </mxCell>
        <mxCell id="B75Brsx6ZmAhKw7WbpSk-52" value="Futter verstauen" style="rounded=1;whiteSpace=wrap;html=1;fontStyle=1" parent="3" vertex="1">
          <mxGeometry x="50" y="450" width="140" height="60" as="geometry" />
        </mxCell>
        <mxCell id="B75Brsx6ZmAhKw7WbpSk-51" value="" style="endArrow=openThin;html=1;rounded=0;endFill=0;endSize=12;entryX=0.25;entryY=0;entryDx=0;entryDy=0;edgeStyle=orthogonalEdgeStyle;curved=1;exitX=0.75;exitY=1;exitDx=0;exitDy=0;" parent="3" source="B75Brsx6ZmAhKw7WbpSk-52" target="B75Brsx6ZmAhKw7WbpSk-50" edge="1">
          <mxGeometry width="50" height="50" relative="1" as="geometry">
            <mxPoint x="112.5" y="540" as="sourcePoint" />
            <mxPoint x="92.5" y="560" as="targetPoint" />
          </mxGeometry>
        </mxCell>
        <mxCell id="B75Brsx6ZmAhKw7WbpSk-64" value="Gabelung" style="text;html=1;strokeColor=none;fillColor=none;align=center;verticalAlign=middle;whiteSpace=wrap;rounded=0;fontColor=#006666;" parent="3" vertex="1">
          <mxGeometry x="20" y="310" width="60" height="24" as="geometry" />
        </mxCell>
        <mxCell id="4" value="Zooverwaltung" style="swimlane;whiteSpace=wrap" parent="1" vertex="1">
          <mxGeometry x="680" y="80" width="240" height="680" as="geometry">
            <mxRectangle x="680" y="80" width="90" height="30" as="alternateBounds" />
          </mxGeometry>
        </mxCell>
        <mxCell id="B75Brsx6ZmAhKw7WbpSk-56" value="&lt;div&gt;Rechnung&amp;nbsp;&lt;/div&gt;&lt;div&gt;bezahlen&lt;/div&gt;" style="rounded=1;whiteSpace=wrap;html=1;fontStyle=1" parent="4" vertex="1">
          <mxGeometry x="50" y="400" width="140" height="60" as="geometry" />
        </mxCell>
        <mxCell id="B75Brsx6ZmAhKw7WbpSk-57" value="" style="endArrow=openThin;html=1;rounded=0;endFill=0;endSize=12;entryX=0.75;entryY=0;entryDx=0;entryDy=0;exitX=0.5;exitY=1;exitDx=0;exitDy=0;edgeStyle=orthogonalEdgeStyle;curved=1;" parent="4" source="B75Brsx6ZmAhKw7WbpSk-56" edge="1">
          <mxGeometry width="50" height="50" relative="1" as="geometry">
            <mxPoint x="88" y="520" as="sourcePoint" />
            <mxPoint x="38" y="570" as="targetPoint" />
          </mxGeometry>
        </mxCell>
        <mxCell id="B75Brsx6ZmAhKw7WbpSk-62" value="Vereinigung" style="text;html=1;strokeColor=none;fillColor=none;align=center;verticalAlign=middle;whiteSpace=wrap;rounded=0;fontColor=#006666;" parent="4" vertex="1">
          <mxGeometry x="130" y="530" width="60" height="24" as="geometry" />
        </mxCell>
        <mxCell id="B75Brsx6ZmAhKw7WbpSk-63" value="" style="endArrow=openThin;html=1;rounded=0;strokeColor=#006666;endFill=0;" parent="4" source="B75Brsx6ZmAhKw7WbpSk-62" edge="1">
          <mxGeometry width="50" height="50" relative="1" as="geometry">
            <mxPoint x="-201" y="350" as="sourcePoint" />
            <mxPoint x="80" y="570" as="targetPoint" />
          </mxGeometry>
        </mxCell>
        <mxCell id="B75Brsx6ZmAhKw7WbpSk-58" value="" style="endArrow=openThin;html=1;rounded=0;endFill=0;endSize=12;entryX=0;entryY=0.5;entryDx=0;entryDy=0;edgeStyle=orthogonalEdgeStyle;curved=1;exitX=0.75;exitY=1;exitDx=0;exitDy=0;" parent="1" source="B75Brsx6ZmAhKw7WbpSk-44" target="B75Brsx6ZmAhKw7WbpSk-56" edge="1">
          <mxGeometry width="50" height="50" relative="1" as="geometry">
            <mxPoint x="350" y="500" as="sourcePoint" />
            <mxPoint x="558" y="440" as="targetPoint" />
          </mxGeometry>
        </mxCell>
        <mxCell id="B75Brsx6ZmAhKw7WbpSk-65" value="" style="endArrow=openThin;html=1;rounded=0;strokeColor=#006666;endFill=0;entryX=1;entryY=0;entryDx=0;entryDy=0;" parent="1" source="B75Brsx6ZmAhKw7WbpSk-64" target="B75Brsx6ZmAhKw7WbpSk-44" edge="1">
          <mxGeometry width="50" height="50" relative="1" as="geometry">
            <mxPoint x="196" y="104" as="sourcePoint" />
            <mxPoint x="390" y="454" as="targetPoint" />
          </mxGeometry>
        </mxCell>
        <mxCell id="Ts4E955SmJLoHfx_hqqQ-12" value="" style="endArrow=openThin;html=1;rounded=0;endFill=0;endSize=12;" parent="1" source="B75Brsx6ZmAhKw7WbpSk-43" target="B75Brsx6ZmAhKw7WbpSk-52" edge="1">
          <mxGeometry width="50" height="50" relative="1" as="geometry">
            <mxPoint x="295" y="480" as="sourcePoint" />
            <mxPoint x="295" y="540" as="targetPoint" />
          </mxGeometry>
        </mxCell>
        <mxCell id="YIORAXxPmRggI_r0fkTX-4" value="AktivitÃ¤tsbereich" style="text;html=1;strokeColor=none;fillColor=none;align=center;verticalAlign=middle;whiteSpace=wrap;rounded=0;fontColor=#006666;" vertex="1" parent="1">
          <mxGeometry x="500" y="20" width="120" height="24" as="geometry" />
        </mxCell>
        <mxCell id="YIORAXxPmRggI_r0fkTX-5" value="" style="endArrow=openThin;html=1;rounded=0;strokeColor=#006666;endFill=0;entryX=0.75;entryY=0;entryDx=0;entryDy=0;" edge="1" parent="1" source="YIORAXxPmRggI_r0fkTX-4" target="2">
          <mxGeometry width="50" height="50" relative="1" as="geometry">
            <mxPoint x="449" y="10" as="sourcePoint" />
            <mxPoint x="370" y="56" as="targetPoint" />
          </mxGeometry>
        </mxCell>
        <mxCell id="YIORAXxPmRggI_r0fkTX-6" value="" style="endArrow=openThin;html=1;rounded=0;strokeColor=#006666;endFill=0;entryX=0.5;entryY=0;entryDx=0;entryDy=0;" edge="1" parent="1" source="YIORAXxPmRggI_r0fkTX-4" target="3">
          <mxGeometry width="50" height="50" relative="1" as="geometry">
            <mxPoint x="525" y="54" as="sourcePoint" />
            <mxPoint x="390" y="90" as="targetPoint" />
          </mxGeometry>
        </mxCell>
        <mxCell id="YIORAXxPmRggI_r0fkTX-7" value="" style="endArrow=openThin;html=1;rounded=0;strokeColor=#006666;endFill=0;entryX=0.25;entryY=0;entryDx=0;entryDy=0;" edge="1" parent="1" source="YIORAXxPmRggI_r0fkTX-4" target="4">
          <mxGeometry width="50" height="50" relative="1" as="geometry">
            <mxPoint x="535" y="64" as="sourcePoint" />
            <mxPoint x="400" y="100" as="targetPoint" />
          </mxGeometry>
        </mxCell>
      </root>
    </mxGraphModel>
  </diagram>
</mxfile>
